<?xml version="1.0" encoding="utf-8"?>
<!-- Generator: Adobe Illustrator 17.1.0, SVG Export Plug-In . SVG Version: 6.00 Build 0)  -->
<!DOCTYPE svg PUBLIC "-//W3C//DTD SVG 1.1//EN" "http://www.w3.org/Graphics/SVG/1.1/DTD/svg11.dtd">
<svg version="1.1" id="laptop" xmlns="http://www.w3.org/2000/svg" xmlns:xlink="http://www.w3.org/1999/xlink" x="0px" y="0px"
	 viewBox="0 0 1010 567.0528" enable-background="new 0 0 1010 567.0528" xml:space="preserve">
<g id="laptop-laptop">
	<path fill="#b7b6ba" d="M905.2441,532.8145H104.6455H0c0,0,0,34.2383,34.1436,34.2383c34.2382,0,907.3164,0,941.5224,0
		c34.334,0,34.334-34.2383,34.334-34.2383H905.2441z"/>
	<path fill="#b7b6ba" d="M905.2441,513.417c1.2178-3.1006,2.0567-6.5498,2.0567-10.1894V27.2769
		C907.3008,12.2779,894.9121,0,879.8652,0H129.9917c-15.0308,0-27.3716,12.2779-27.3716,27.2769v475.9507
		c0,3.6396,0.791,7.0888,2.0254,10.1894H905.2441z M145.9717,43.1617H863.918v430.4799H145.9717V43.1617z"/>
</g>
</svg>
